<svg width="800" height="600" viewBox="0 0 800 600" xmlns="http://www.w3.org/2000/svg">
  <!-- Container Sheet (large rectangle) -->
  <rect x="0" y="0" width="800" height="600" fill="none" stroke="black" stroke-width="2"/>

  <!-- Complex Shapes -->
  <polygon points="50,50 120,70 100,150 40,140" fill="#ff6666" />
  <polygon points="150,200 210,210 230,280 170,290 140,240" fill="#66ccff" />
  <polygon points="300,100 340,120 320,180 270,160 290,110" fill="#99cc66" />
  <polygon points="400,200 450,230 430,280 390,270 370,230" fill="#cc99ff" />
  <polygon points="500,50 570,90 540,160 480,140 460,90" fill="#ffcc66" />
  <polygon points="600,150 660,190 640,260 590,230 570,180" fill="#66ffcc" />
  <polygon points="100,400 160,430 130,500 80,470" fill="#cc6666" />
  <polygon points="200,350 270,370 250,430 190,410" fill="#6699ff" />
  <polygon points="300,420 370,440 350,500 290,480" fill="#ff99cc" />
  <polygon points="420,400 490,430 460,500 400,470" fill="#66ff99" />
  <polygon points="550,380 620,410 590,480 530,460" fill="#9966ff" />
  <polygon points="650,320 720,350 690,420 630,400" fill="#ff6666" />
  <polygon points="200,100 230,160 190,210 150,180" fill="#3399cc" />
  <polygon points="420,120 470,160 440,220 390,200" fill="#ff9933" />
</svg>
